HIERARCHY
ROOT Hips
{
	OFFSET -0.001795 -0.223333 0.028219
	CHANNELS 6 Xposition Yposition Zposition Zrotation Yrotation Xrotation 
	JOINT LeftUpLeg
	{
		OFFSET 0.069520 -0.091406 -0.006815
		CHANNELS 3 Zrotation Yrotation Xrotation
		JOINT LeftLeg
		{
			OFFSET 0.034277 -0.375199 -0.004496
			CHANNELS 3 Zrotation Yrotation Xrotation
			JOINT LeftFoot
			{
				OFFSET -0.013596 -0.397961 -0.043693
				CHANNELS 3 Zrotation Yrotation Xrotation
				JOINT LeftToe
				{
					OFFSET 0.026358 -0.055791 0.119288
					CHANNELS 3 Zrotation Yrotation Xrotation
					End Site
					{
						OFFSET 0.000000 0.000000 0.000000
					}
				}
			}
		}
	}
	JOINT RightUpLeg
	{
		OFFSET -0.067670 -0.090522 -0.004320
		CHANNELS 3 Zrotation Yrotation Xrotation
		JOINT RightLeg
		{
			OFFSET -0.038290 -0.382569 -0.008850
			CHANNELS 3 Zrotation Yrotation Xrotation
			JOINT RightFoot
			{
				OFFSET 0.015774 -0.398415 -0.042312
				CHANNELS 3 Zrotation Yrotation Xrotation
				JOINT RightToe
				{
					OFFSET -0.025372 -0.048144 0.123348
					CHANNELS 3 Zrotation Yrotation Xrotation
					End Site
					{
						OFFSET 0.000000 0.000000 0.000000
					}
				}
			}
		}
	}
	JOINT Spine
	{
		OFFSET -0.002533 0.108963 -0.026696
		CHANNELS 3 Zrotation Yrotation Xrotation
		JOINT Spine1
		{
			OFFSET 0.005487 0.135180 0.001092
			CHANNELS 3 Zrotation Yrotation Xrotation
			JOINT Spine2
			{
				OFFSET 0.001457 0.052922 0.025425
				CHANNELS 3 Zrotation Yrotation Xrotation
				JOINT Neck
				{
					OFFSET -0.002778 0.213870 -0.042857
					CHANNELS 3 Zrotation Yrotation Xrotation
					JOINT Head
					{
						OFFSET 0.005152 0.064970 0.051349
						CHANNELS 3 Zrotation Yrotation Xrotation
						End Site
						{
							OFFSET 0.000000 0.000000 0.000000
						}
					}
				}
				JOINT LeftShoulder
				{
					OFFSET 0.078845 0.121749 -0.034090
					CHANNELS 3 Zrotation Yrotation Xrotation
					JOINT LeftArm
					{
						OFFSET 0.090977 0.030469 -0.008868
						CHANNELS 3 Zrotation Yrotation Xrotation
						JOINT LeftForeArm
						{
							OFFSET 0.259612 -0.012772 -0.027456
							CHANNELS 3 Zrotation Yrotation Xrotation
							JOINT LeftHand
							{
								OFFSET 0.249234 0.008986 -0.001171
								CHANNELS 3 Zrotation Yrotation Xrotation
								End Site
								{
									OFFSET 0.000000 0.000000 0.000000
								}
							}
						}
					}
				}
				JOINT RightShoulder
				{
					OFFSET -0.081759 0.118833 -0.038615
					CHANNELS 3 Zrotation Yrotation Xrotation
					JOINT RightArm
					{
						OFFSET -0.096012 0.032551 -0.009143
						CHANNELS 3 Zrotation Yrotation Xrotation
						JOINT RightForeArm
						{
							OFFSET -0.253742 -0.013329 -0.021401
							CHANNELS 3 Zrotation Yrotation Xrotation
							JOINT RightHand
							{
								OFFSET -0.255298 0.007772 -0.005559
								CHANNELS 3 Zrotation Yrotation Xrotation
								End Site
								{
									OFFSET 0.000000 0.000000 0.000000
								}
							}
						}
					}
				}
			}
		}
	}
}
MOTION
Frames: 17
Frame Time: 0.050000
0.000898 0.936061 0.001838 -4.880335 -23.433564 2.378700 9.809146 0.925756 9.958686 -2.101591 0.575782 -9.650664 5.544674 11.773986 9.654104 0.000000 0.000000 0.000000 -3.329698 0.134575 2.984651 3.354984 -0.149341 -4.947910 0.517792 -6.536790 11.377730 0.000000 0.000000 0.000000 13.161002 -0.579166 5.099359 -9.287285 2.530901 -30.021830 -5.065239 15.061374 24.084193 26.589908 -12.961602 -28.610026 0.000000 0.000000 0.000000 -29.110111 3.585056 -4.270274 -36.555531 -9.726931 -3.380100 6.628089 -6.481072 -0.027160 0.000000 0.000000 0.000000 -12.126465 -8.621111 -1.628042 -12.107628 18.672029 -1.768344 -3.650165 -11.626759 0.053800 0.000000 0.000000 0.000000 
0.000584 0.936210 0.000554 -4.870421 -23.478768 2.480895 9.780204 0.917234 9.825499 -2.002580 0.572298 -9.730382 5.578212 11.816472 9.797746 0.000000 0.000000 0.000000 -3.242051 0.126407 2.968720 3.267897 -0.144770 -5.265004 0.571260 -6.512689 11.493416 0.000000 0.000000 0.000000 13.204207 -0.573772 5.040876 -9.404648 2.555864 -29.808774 -5.214669 15.166169 24.260275 26.939356 -13.076333 -28.859086 0.000000 0.000000 0.000000 -28.673883 3.353397 -4.062938 -36.371985 -10.205782 -3.252955 7.279784 -5.912813 -0.045384 0.000000 0.000000 0.000000 -11.563256 -8.899866 -1.767916 -11.968363 18.883441 -1.797809 -3.078508 -11.240524 -0.010858 0.000000 0.000000 0.000000 
0.000082 0.936072 -0.000552 -4.884641 -23.590561 2.527959 9.757124 0.923476 9.846355 -1.871189 0.571948 -9.896516 5.631958 11.903294 9.890148 0.000000 0.000000 0.000000 -3.129886 0.117875 2.908516 3.176089 -0.142117 -5.358646 0.612042 -6.429276 11.441337 0.000000 0.000000 0.000000 13.158827 -0.562442 4.960141 -9.439607 2.562108 -29.537021 -5.141036 15.218573 24.342199 26.841690 -12.918186 -29.148900 0.000000 0.000000 0.000000 -28.542044 3.352400 -4.017254 -36.360629 -10.678308 -3.144341 7.893332 -5.101399 -0.046880 0.000000 0.000000 0.000000 -10.962759 -8.876653 -1.825474 -12.223339 19.019751 -1.837981 -2.994435 -11.261282 -0.022321 0.000000 0.000000 0.000000 
-0.000487 0.935945 -0.001542 -4.783781 -23.541925 2.562772 9.769862 0.911968 9.729936 -1.959289 0.579846 -9.937400 5.607206 11.852965 9.928917 0.000000 0.000000 0.000000 -3.169567 0.119910 2.976374 3.186677 -0.137828 -5.695909 0.587155 -6.475055 11.461276 0.000000 0.000000 0.000000 13.014229 -0.590837 5.135781 -9.386665 2.550142 -29.576517 -5.197600 15.461965 24.464356 26.816179 -12.754291 -29.490721 0.000000 0.000000 0.000000 -28.197316 3.597119 -4.230460 -36.495484 -11.117632 -3.014251 7.821229 -4.633640 -0.034642 0.000000 0.000000 0.000000 -10.324173 -9.423837 -2.072447 -12.325334 19.444981 -1.910366 -2.862731 -11.484672 -0.038993 0.000000 0.000000 0.000000 
-0.001050 0.935823 -0.002474 -4.650693 -23.359639 2.588773 9.758963 0.896044 9.626294 -2.024511 0.589609 -10.064072 5.516937 11.694512 9.984413 0.000000 0.000000 0.000000 -3.356855 0.134293 3.117872 3.428633 -0.130416 -6.137403 0.510396 -6.624692 11.547640 0.000000 0.000000 0.000000 12.842078 -0.575239 4.983624 -9.418144 2.559081 -29.528983 -5.208959 15.558426 24.567102 26.343133 -12.396610 -29.702822 0.000000 0.000000 0.000000 -28.089395 3.976281 -4.541494 -36.449580 -11.124672 -2.992224 7.922719 -4.691173 -0.040491 0.000000 0.000000 0.000000 -10.113418 -9.431952 -2.125201 -11.833940 19.159941 -1.817572 -3.335382 -11.558493 0.019858 0.000000 0.000000 0.000000 
-0.001479 0.935772 -0.003344 -4.602329 -23.505397 2.687735 9.574964 0.897168 9.539791 -1.756723 0.576507 -10.157099 5.613263 11.844154 10.102784 0.000000 0.000000 0.000000 -3.422528 0.143041 3.170223 3.518448 -0.117188 -6.572593 0.601724 -6.534041 11.653953 0.000000 0.000000 0.000000 12.877076 -0.555569 4.829894 -9.646875 2.606908 -29.336033 -5.118038 16.232101 24.543832 26.188539 -12.085602 -30.138949 0.000000 0.000000 0.000000 -27.984133 4.227653 -4.922026 -36.170138 -11.235093 -2.861910 7.719719 -5.201932 -0.054693 0.000000 0.000000 0.000000 -9.862045 -9.754163 -2.307600 -11.304061 18.710201 -1.674514 -4.112636 -11.889694 0.119830 0.000000 0.000000 0.000000 
-0.001804 0.935848 -0.004173 -4.520265 -23.348112 2.624047 9.536138 0.895594 9.590718 -1.710596 0.582004 -10.336724 5.523713 11.687354 10.214270 0.000000 0.000000 0.000000 -3.586778 0.151904 3.435898 3.773502 -0.104077 -7.026844 0.568325 -6.657147 11.832725 0.000000 0.000000 0.000000 12.852374 -0.522148 4.584893 -9.857254 2.658926 -29.240865 -5.035893 16.645385 24.919042 25.943099 -11.713814 -30.750233 0.000000 0.000000 0.000000 -28.207923 4.351299 -5.228125 -35.977793 -11.379424 -2.765434 7.932387 -5.941423 -0.086929 0.000000 0.000000 0.000000 -9.525189 -9.695220 -2.394656 -10.610245 17.911748 -1.478641 -4.879836 -12.073219 0.222370 0.000000 0.000000 0.000000 
-0.002120 0.936119 -0.005030 -4.390070 -23.278585 2.596444 9.463544 0.897753 9.640381 -1.725582 0.596739 -10.588575 5.456966 11.562521 10.451967 0.000000 0.000000 0.000000 -3.578473 0.150971 3.424491 3.615583 -0.105608 -7.116215 0.541274 -6.724635 11.878743 0.000000 0.000000 0.000000 12.558896 -0.486766 4.307924 -9.888536 2.662750 -28.717808 -4.981320 16.970036 24.793631 25.940114 -11.461222 -31.297491 0.000000 0.000000 0.000000 -28.641982 4.776015 -5.753228 -35.793862 -11.528780 -2.640146 8.033530 -6.771508 -0.119071 0.000000 0.000000 0.000000 -8.980164 -10.092425 -2.598239 -10.243898 18.049911 -1.475078 -5.524596 -12.581231 0.315253 0.000000 0.000000 0.000000 
-0.002498 0.936349 -0.005883 -4.260570 -23.064353 2.389989 9.247942 0.909952 9.856033 -1.418754 0.590606 -10.852200 5.338798 11.359794 10.643163 0.000000 0.000000 0.000000 -3.750006 0.152978 3.976264 3.814479 -0.085217 -7.823866 0.512802 -6.882388 12.173037 0.000000 0.000000 0.000000 12.255471 -0.460661 4.126121 -9.970120 2.683621 -28.615245 -4.976863 17.069415 24.936227 25.953448 -11.324166 -31.663149 0.000000 0.000000 0.000000 -28.838606 4.762968 -5.880668 -35.602527 -11.620527 -2.576221 8.443721 -7.143399 -0.154272 0.000000 0.000000 0.000000 -8.527263 -9.748837 -2.577824 -9.581650 18.028636 -1.440533 -5.973143 -13.235881 0.389343 0.000000 0.000000 0.000000 
-0.002904 0.936755 -0.006803 -4.362324 -23.090734 2.465899 9.337615 0.896231 9.665766 -1.319877 0.573529 -10.659756 5.372780 11.407599 10.735998 0.000000 0.000000 0.000000 -3.832408 0.158325 4.213181 4.228529 -0.051811 -8.411511 0.630016 -6.869760 12.569664 0.000000 0.000000 0.000000 11.972106 -0.393608 3.600714 -10.032675 2.698073 -28.256298 -4.674706 17.191777 25.197500 25.819331 -11.119331 -32.023861 0.000000 0.000000 0.000000 -28.970109 4.703774 -5.883863 -35.639934 -11.579999 -2.587859 8.887945 -7.887495 -0.203415 0.000000 0.000000 0.000000 -8.029948 -9.961747 -2.694307 -8.626803 18.872381 -1.539333 -7.639033 -13.115313 0.616267 0.000000 0.000000 0.000000 
-0.003379 0.936937 -0.007724 -4.432311 -23.422035 2.484372 9.158082 0.920377 9.776393 -0.883689 0.556030 -10.779818 5.543673 11.677257 10.953974 0.000000 0.000000 0.000000 -3.917710 0.167696 4.540122 4.535028 -0.003589 -9.134156 0.876833 -6.643705 12.918817 0.000000 0.000000 0.000000 11.662609 -0.323779 3.091934 -9.956221 2.678255 -28.106774 -4.157934 17.221075 25.465791 25.647093 -11.123341 -31.794683 0.000000 0.000000 0.000000 -29.148879 4.801935 -5.879105 -35.545105 -11.488403 -2.644341 8.800375 -8.381424 -0.210026 0.000000 0.000000 0.000000 -7.578023 -9.239034 -2.512132 -8.189095 20.193894 -1.729438 -10.972666 -13.128630 1.061250 0.000000 0.000000 0.000000 
-0.003872 0.936946 -0.008623 -4.491262 -23.582356 2.516842 9.280510 0.928679 9.811493 -0.950408 0.566145 -10.860387 5.601201 11.762649 11.051671 0.000000 0.000000 0.000000 -3.968275 0.177169 4.531628 4.795703 0.017836 -9.247676 0.969552 -6.534903 12.986328 0.000000 0.000000 0.000000 11.713913 -0.192855 2.172060 -9.912669 2.669643 -27.539889 -3.888607 17.754208 25.659488 25.437505 -10.782154 -32.288708 0.000000 0.000000 0.000000 -29.042516 4.383330 -5.725794 -35.998427 -11.241022 -2.691091 9.801629 -9.299312 -0.318960 0.000000 0.000000 0.000000 -7.935525 -8.995618 -2.451459 -7.226970 21.581913 -1.852100 -16.915211 -12.554082 1.812431 0.000000 0.000000 0.000000 
-0.004364 0.937198 -0.009519 -4.631924 -24.609498 2.565158 9.047238 0.970051 9.750457 -0.509378 0.510681 -10.357700 6.136937 12.624010 11.210330 0.000000 0.000000 0.000000 -4.158258 0.223691 4.298242 5.282272 0.061216 -9.116378 1.471935 -5.827549 13.058540 0.000000 0.000000 0.000000 11.755950 -0.132997 1.849720 -9.515109 2.560539 -27.469487 -3.389665 18.509113 25.897384 25.856760 -11.119293 -32.002744 0.000000 0.000000 0.000000 -29.261203 3.918384 -5.448629 -36.012329 -10.901597 -2.795034 9.502813 -10.105110 -0.331244 0.000000 0.000000 0.000000 -8.023880 -8.380873 -2.282658 -7.686050 23.599714 -2.165596 -24.907116 -10.668647 2.488838 0.000000 0.000000 0.000000 
-0.004892 0.936926 -0.010291 -4.613028 -25.622512 2.610748 8.982426 1.015379 9.784470 -0.661710 0.509630 -10.123114 6.598856 13.370534 11.319307 0.000000 0.000000 0.000000 -4.653966 0.310725 3.996201 6.035051 0.120007 -8.965686 1.900964 -5.163288 13.001017 0.000000 0.000000 0.000000 12.019068 -0.072199 1.584779 -9.345464 2.517556 -27.631112 -2.956404 19.467271 26.134788 25.800064 -10.851756 -32.574642 0.000000 0.000000 0.000000 -28.165434 3.816187 -5.270159 -37.611973 -10.640199 -2.951692 10.783132 -11.226187 -0.489528 0.000000 0.000000 0.000000 -9.561000 -7.726868 -2.012249 -7.206877 24.263987 -2.189500 -34.614486 -6.639261 2.510688 0.000000 0.000000 0.000000 
-0.005440 0.936693 -0.011047 -4.828487 -27.261947 2.846212 8.632402 1.069553 9.637424 -0.121269 0.431074 -9.463889 7.470202 14.786503 11.494874 0.000000 0.000000 0.000000 -4.839000 0.370881 3.566163 6.530147 0.195079 -8.891928 2.661086 -4.065494 13.036101 0.000000 0.000000 0.000000 12.618138 0.026299 1.210499 -8.717780 2.354654 -27.758609 -2.658593 20.755989 26.729710 26.306254 -11.132406 -32.592315 0.000000 0.000000 0.000000 -27.754052 4.448671 -5.601206 -38.174313 -10.834602 -2.974926 9.892475 -11.938211 -0.437153 0.000000 0.000000 0.000000 -12.207221 -7.638480 -1.828224 -7.483268 25.291956 -2.328538 -44.596834 -1.086264 1.236152 0.000000 0.000000 0.000000 
-0.006126 0.936346 -0.011712 -4.875872 -28.139249 2.995405 8.473616 1.111448 9.746586 0.039399 0.426544 -9.550373 7.896147 15.459465 11.724487 0.000000 0.000000 0.000000 -5.498411 0.480172 3.147415 7.729582 0.286209 -8.630761 3.019790 -3.546163 13.088046 0.000000 0.000000 0.000000 13.162751 0.168247 0.570388 -9.001484 2.408940 -26.936773 -2.408191 20.988103 26.139369 26.727552 -11.289608 -32.677775 0.000000 0.000000 0.000000 -26.807715 3.912763 -4.986570 -39.302937 -10.677015 -3.076537 9.697083 -12.348394 -0.430928 0.000000 0.000000 0.000000 -15.146498 -6.324541 -1.268517 -8.391530 24.388511 -2.277268 -52.567495 4.065379 -0.978305 0.000000 0.000000 0.000000 
-0.006828 0.936352 -0.012388 -5.086428 -28.590031 2.984842 8.647273 1.137144 9.800873 0.061791 0.404950 -9.259637 8.113089 15.818719 11.759077 0.000000 0.000000 0.000000 -5.283447 0.456399 3.383145 7.733528 0.326659 -8.961059 3.295612 -3.222071 13.247414 0.000000 0.000000 0.000000 13.420519 0.133080 0.943853 -8.276084 2.243344 -27.691543 -2.289181 21.871921 26.440233 26.945308 -11.398030 -32.652374 0.000000 0.000000 0.000000 -26.637887 4.025827 -5.212729 -39.377893 -10.348227 -3.140014 9.140970 -13.166802 -0.419590 0.000000 0.000000 0.000000 -17.275927 -6.122812 -1.217513 -10.469333 23.932651 -2.338574 -57.577655 7.456645 -2.813988 0.000000 0.000000 0.000000 
